<svg xmlns="http://www.w3.org/2000/svg" viewBox="0 0 1600 900" fill="none"><rect width="1600" height="900" fill="#090B10"/><rect width="1600" height="900" fill="url(#bg)"/><circle cx="1220" cy="180" r="220" fill="#E7D8AE" fill-opacity="0.18"/><circle cx="360" cy="760" r="300" fill="#224B49" fill-opacity="0.32"/><path d="M0 650C176 560 326 522 450 536C641 557 768 713 958 702C1159 690 1254 485 1600 466V900H0V650Z" fill="url(#sea)"/><path d="M0 720C129 676 244 651 344 651C516 651 667 727 875 727C1094 727 1265 643 1600 580V900H0V720Z" fill="#0C1520" fill-opacity="0.82"/><text x="104" y="154" fill="#F6F1E7" font-family="Cormorant Garamond, serif" font-size="72">Aurelia Grand</text><text x="108" y="212" fill="#E7D8AE" font-family="Manrope, sans-serif" font-size="20" letter-spacing="8">RIVIERA WATERFRONT ESTATE</text><defs><linearGradient id="bg" x1="260" y1="38" x2="1327" y2="900" gradientUnits="userSpaceOnUse"><stop stop-color="#14202C"/><stop offset="0.48" stop-color="#090B10"/><stop offset="1" stop-color="#15212F"/></linearGradient><linearGradient id="sea" x1="800" y1="536" x2="800" y2="900" gradientUnits="userSpaceOnUse"><stop stop-color="#183444"/><stop offset="1" stop-color="#0A1117"/></linearGradient></defs></svg>