<svg width="172" height="42" viewBox="0 0 172 42" fill="none" xmlns="http://www.w3.org/2000/svg"><rect width="42" height="42" rx="10" fill="#E7D8AE"/><path d="M21 9L28.2 30H24.4L22.9 25.4H19L17.5 30H13.8L21 9ZM19.8 21.9H22.1L21 18.2L19.8 21.9Z" fill="#090B10"/><path d="M57.8 31V11.8H65.2C69.4 11.8 72 14 72 17.8C72 20.1 70.8 21.8 68.6 22.7C71.3 23.4 72.8 25.3 72.8 28.1C72.8 32.2 69.9 35 64.9 35H57.8V31ZM61.6 20.1H64.7C66.8 20.1 68.1 19.2 68.1 17.6C68.1 16.1 66.9 15.2 64.8 15.2H61.6V20.1ZM61.6 31.5H64.8C67.4 31.5 69 30.3 69 28.2C69 26.2 67.3 24.9 64.6 24.9H61.6V31.5Z" fill="#F6F1E7"/><path d="M81.6 35C76.1 35 72.1 31.1 72.1 25.3C72.1 19.4 76.1 15.4 81.8 15.4C87.5 15.4 91.4 19.3 91.4 25.3C91.4 31.1 87.3 35 81.6 35ZM81.7 31.4C85 31.4 87.6 28.8 87.6 25.3C87.6 21.6 85.1 19 81.8 19C78.4 19 75.9 21.6 75.9 25.3C75.9 28.8 78.4 31.4 81.7 31.4Z" fill="#F6F1E7"/><path d="M102.9 35L98.6 28.2H96.6V35H92.8V15.8H100.2C105 15.8 108 18.2 108 22.1C108 25 106.4 27.2 103.6 28L108.3 35H102.9ZM96.6 24.8H99.8C102.4 24.8 104.1 23.7 104.1 21.7C104.1 19.7 102.5 18.7 99.9 18.7H96.6V24.8Z" fill="#F6F1E7"/><path d="M117.8 35.1C114.7 35.1 111.8 34.1 109.4 32.2L111.1 29C113.1 30.5 115.5 31.4 117.8 31.4C120 31.4 121.5 30.5 121.5 29.2C121.5 27.8 120 27.5 117.2 26.9C113.6 26.2 110 25.2 110 21C110 17.4 113.1 15.4 117.3 15.4C120 15.4 122.8 16.2 125.1 17.6L123.6 20.8C121.4 19.6 119.3 18.9 117.4 18.9C115.3 18.9 113.9 19.7 113.9 20.9C113.9 22.3 115.4 22.7 118.1 23.2C121.8 24 125.3 25 125.3 29.1C125.3 32.9 122.1 35.1 117.8 35.1Z" fill="#F6F1E7"/><path d="M132.2 35V19.3H126.6V15.8H141.6V19.3H136V35H132.2Z" fill="#F6F1E7"/><path d="M147.1 35V15.8H161.1V19.2H150.9V23.6H160.2V27H150.9V31.6H161.5V35H147.1Z" fill="#F6F1E7"/></svg>
